<svg width="688" height="674" viewBox="0 0 688 674" fill="none" xmlns="http://www.w3.org/2000/svg">
<g filter="url(#filter0_i_908_947)">
<path d="M592.667 370.174C554.566 380.858 514.308 381.208 476.027 371.188C437.746 361.169 402.822 341.14 374.841 313.159C346.86 285.178 326.832 250.254 316.812 211.973C306.792 173.692 307.142 133.434 317.826 95.333C280.262 105.788 246.093 125.903 218.722 153.674C191.351 181.444 171.734 215.902 161.824 253.613C151.914 291.325 152.058 330.975 162.241 368.614C172.424 406.253 192.29 440.567 219.862 468.138C247.433 495.71 281.747 515.577 319.386 525.759C357.025 535.942 396.675 536.086 434.387 526.176C472.098 516.266 506.556 496.649 534.326 469.278C562.097 441.907 582.212 407.738 592.667 370.174V370.174Z" fill="#FFB74A"/>
</g>
<path d="M64 355.5C64 355.5 193.091 239.625 348 355.5C502.909 471.375 632 355.5 632 355.5" stroke="#D6D6D6" stroke-opacity="0.5" stroke-width="30" stroke-linecap="round" stroke-linejoin="round"/>
<path d="M64 459C64 459 193.091 344.25 348 459C502.909 573.75 632 459 632 459" stroke="#D6D6D6" stroke-opacity="0.5" stroke-width="30" stroke-linecap="round" stroke-linejoin="round"/>
<path d="M64 562.5C64 562.5 193.091 446.625 348 562.5C502.909 678.375 632 562.5 632 562.5" stroke="#D6D6D6" stroke-opacity="0.5" stroke-width="30" stroke-linecap="round" stroke-linejoin="round"/>
<defs>
<filter id="filter0_i_908_947" x="154.496" y="88.333" width="445.172" height="445.171" filterUnits="userSpaceOnUse" color-interpolation-filters="sRGB">
<feFlood flood-opacity="0" result="BackgroundImageFix"/>
<feBlend mode="normal" in="SourceGraphic" in2="BackgroundImageFix" result="shape"/>
<feColorMatrix in="SourceAlpha" type="matrix" values="0 0 0 0 0 0 0 0 0 0 0 0 0 0 0 0 0 0 127 0" result="hardAlpha"/>
<feOffset dx="7" dy="-8"/>
<feGaussianBlur stdDeviation="3.5"/>
<feComposite in2="hardAlpha" operator="arithmetic" k2="-1" k3="1"/>
<feColorMatrix type="matrix" values="0 0 0 0 0 0 0 0 0 0 0 0 0 0 0 0 0 0 0.25 0"/>
<feBlend mode="normal" in2="shape" result="effect1_innerShadow_908_947"/>
</filter>
</defs>
</svg>
